<svg width="32" height="32" viewBox="0 0 32 32" fill="none" xmlns="http://www.w3.org/2000/svg">
  <rect width="32" height="32" rx="8" fill="#4a6741"/>
  <path d="M16.094 25H12.156L13.562 21.125H12.25L18.125 7H19.312L23.906 21.125H22.594L24 25H20.062L19.188 22.125H16.969L16.094 25ZM17.375 20.125L18.062 18.125L17.406 15.938L16.656 13.75L15.906 15.938L15.25 18.125L15.938 20.125H17.375Z" fill="white"/>
  <path d="M5 27.5L15.5 9L13 13.5L17.5 13.5L19 11L8.5 29.5L5 27.5Z" fill="#8fb339" fill-opacity="0.4"/>
  <path d="M27 5L16.5 23.5L19 19L14.5 19L13 21.5L23.5 3L27 5Z" fill="#8fb339" fill-opacity="0.4"/>
</svg>